<svg width="192" height="149" viewBox="0 0 192 149" fill="none" xmlns="http://www.w3.org/2000/svg">
<path d="M147.259 40.1015C146.359 37.7002 145.759 35.359 142.517 35.359C142.577 34.6386 142.637 34.0983 142.697 33.558C142.997 31.1567 141.616 29.6559 139.155 29.9561C138.074 30.0761 136.994 30.6164 135.973 30.9766C134.653 31.4569 133.332 31.9972 132.131 32.4174C132.131 31.2167 132.251 30.3763 132.131 29.5959C131.591 26.8344 129.73 25.0334 127.569 23.4726C124.867 21.5516 123.306 18.8501 122.166 15.3082C126.428 15.6084 130.21 15.9686 133.992 16.0886C134.713 16.0886 135.793 15.6084 136.213 15.008C137.834 12.7268 137.354 11.5862 135.253 9.84528C132.852 7.80418 129.31 7.74415 127.329 4.74254C126.428 3.3618 123.967 3.06164 122.106 2.16116C122.166 1.98106 122.286 1.44077 122.466 0.660354C121.506 1.20064 120.845 1.62087 120.125 2.04109C119.825 1.44077 119.584 1.02055 119.104 0C118.624 3.90209 115.862 4.74254 113.101 5.70306C113.821 6.18332 114.182 6.42344 114.722 6.78364C113.161 7.80418 111.78 8.7647 110.34 9.66518C110.52 9.78525 110.7 9.90531 110.76 9.96534C109.979 12.1865 109.319 14.0475 108.659 15.9686C109.679 16.869 109.559 20.531 108.659 22.2719C107.278 21.6116 105.897 21.0113 104.576 20.2909C104.036 19.9907 103.616 19.5105 103.196 19.1503C103.676 18.67 104.096 18.1898 104.576 17.7095C105.237 17.0491 105.957 16.4488 106.678 15.8485C105.897 15.1881 105.117 14.4678 104.336 13.8674C103.676 13.3271 102.535 12.967 102.355 12.3066C101.935 10.7458 100.734 10.2655 99.6538 10.5657C98.213 10.9859 95.9318 11.9464 95.8117 12.9069C95.5716 14.828 95.2114 16.0286 92.8101 16.5089C97.5527 15.9085 96.292 20.3509 97.7928 21.5516C95.8117 23.5927 94.0108 25.6337 91.9697 27.4347C90.649 28.5753 89.0881 29.4758 87.4673 29.9561C84.5857 30.7965 82.3045 30.1962 79.7231 27.915C73.4197 22.452 66.516 17.7695 59.8524 12.8469C59.4322 12.5467 58.952 12.3666 58.5317 12.1265C58.7118 12.9069 59.1321 13.2671 59.5523 13.6273C65.6756 18.67 71.7989 23.7127 77.9221 28.7554C78.9427 29.5959 79.9632 30.3763 79.7831 31.9972C79.7231 32.5374 80.5635 33.498 81.1639 33.618C82.5446 33.8582 83.1449 34.4585 83.0849 35.8392C83.0849 36.2594 83.5051 36.7397 83.8053 37.0999C84.4656 37.8803 85.2461 38.5407 85.7863 39.3811C86.8069 41.002 87.7074 42.6829 88.788 44.5439C89.4483 43.8235 89.8085 43.2832 90.3488 42.923C92.0297 41.6023 91.7896 40.4617 90.2888 39.141C88.908 37.9403 87.7674 36.4996 86.5067 35.1789C89.9886 35.5991 92.63 33.9782 95.2114 32.2973C95.5116 32.1172 95.8718 31.9371 96.1719 31.757C97.1324 31.2167 97.6127 31.4569 98.3931 32.3573C100.434 34.8787 101.155 37.7002 101.275 40.8819C101.395 45.6845 100.914 46.585 96.352 47.9057C96.1719 47.9657 95.9918 48.1458 95.5716 48.3859C96.5321 49.4065 97.3125 50.2469 97.9129 50.9073C96.5321 53.3686 95.1514 55.7699 93.8907 58.1712C93.2303 59.4319 92.4499 59.9121 91.0692 60.2723C89.0881 60.7526 87.047 61.593 85.4862 62.9137C82.9048 65.0749 80.6836 67.6563 78.2223 70.1176C79.3629 69.8174 80.6836 69.5173 81.9443 69.2171C82.0644 69.3972 82.2445 69.6373 82.3645 69.8174C80.2034 71.6184 78.0422 73.4794 75.881 75.2804C75.9411 75.4004 76.0011 75.5805 76.0611 75.7006C77.5019 75.0402 79.0027 74.4399 80.4435 73.7796C76.5414 76.9613 74.2001 81.1035 72.9995 85.9061C72.2191 88.9077 70.7783 91.429 67.7767 93.29C68.317 93.4701 68.6171 93.6502 68.9773 93.6502C73.3597 93.9504 76.3013 92.3295 78.2223 88.3074C79.0027 86.7465 79.7231 85.1857 80.5035 83.5048C81.404 85.3057 82.1844 86.8666 82.9648 88.3674C83.205 88.3074 83.3851 88.1873 83.6252 88.1273C82.7247 85.0656 81.8843 82.064 83.6852 79.0024C86.2066 74.8001 88.5478 70.4778 88.0075 65.315C88.0075 65.0749 88.0075 64.7747 88.1276 64.6547C88.788 64.0543 89.4483 63.5741 90.1087 62.9738C90.4088 63.6942 90.8291 64.4145 91.0092 65.1349C91.4894 67.3561 91.2493 69.9375 92.3899 71.7385C94.1308 74.56 93.9507 76.9012 92.4499 79.4826C91.9096 80.3831 91.4894 81.3436 90.8891 82.1841C89.6884 83.865 89.6884 85.6059 90.1087 87.5269C90.769 90.8887 91.4294 94.3106 91.6095 97.7324C91.8496 101.334 93.5305 103.075 97.7328 102.895C97.3125 101.995 97.0124 101.214 96.5321 100.554C93.4705 95.8114 92.0297 90.8287 94.6111 85.5459C96.4721 81.6438 98.9934 78.1019 101.155 74.3799C103.496 75.5205 103.676 77.0213 102.475 78.8223C101.635 80.143 100.734 81.4637 99.7738 82.6643C98.6332 84.0451 98.6933 85.1857 99.9539 86.3863C101.395 87.707 102.775 89.0878 104.156 90.4685C106.798 93.17 108.659 96.3517 110.219 100.134C111.54 100.374 113.281 100.734 114.962 101.034C115.082 100.854 115.142 100.674 115.262 100.494C113.341 97.6123 111.42 94.7308 109.379 91.9693C108.479 90.7086 107.218 89.6881 106.197 88.4874C104.456 86.4464 104.276 84.8855 106.197 83.1446C109.439 80.263 111.36 76.6011 113.401 72.9391C114.482 71.0181 114.902 69.2171 113.881 67.2361C112.621 64.7747 113.401 62.7937 115.322 60.8726C116.463 62.4935 117.603 62.7336 118.864 61.0527C119.104 60.7526 119.825 60.8726 120.185 60.6325C121.025 60.2123 121.866 59.732 122.526 59.1317C123.126 58.5314 123.487 57.6909 123.967 56.9705C124.447 56.2502 124.927 55.6498 125.588 54.7494C124.627 54.5092 124.087 54.3892 123.006 54.089C125.768 50.8473 128.289 47.9057 130.39 45.5044C132.371 44.6039 133.812 43.9436 135.193 43.2832V46.7651C135.373 46.8851 135.553 47.0652 135.733 47.1853C137.174 45.9847 138.615 44.724 140.115 43.7034C141.976 42.5028 142.817 40.8819 142.517 38.6007C145.218 40.1615 146.959 46.4049 145.578 48.9262C144.198 51.5676 144.918 53.0685 148.22 53.8489C148.64 49.4065 149.06 44.784 147.259 40.1015ZM137.654 36.8598C136.454 36.9798 135.253 37.34 133.632 37.6402C135.673 35.8993 137.414 34.3984 139.275 32.7776C140.656 36.1394 140.416 36.5596 137.654 36.8598Z" fill="white"/>
<path d="M74.6805 143.597C72.8795 136.874 70.9585 130.15 69.2176 123.426C68.9774 122.526 69.2776 121.385 69.5177 120.485C70.2982 117.543 71.6189 114.662 71.9791 111.72C72.5193 107.038 71.919 102.415 69.1575 98.3329C66.8763 94.9711 63.8747 94.4308 60.4529 96.5919C60.2127 96.712 59.9726 96.8321 59.5524 97.0722C59.2522 96.1117 59.0121 95.3313 58.772 94.4308C56.0705 95.5114 53.5492 96.5319 50.8477 97.6125C52.8288 114.181 52.2885 130.75 49.8872 147.319C53.0689 146.839 55.8904 146.419 59.1322 145.938C59.6725 139.515 60.2728 133.031 60.8131 126.488C61.0532 126.488 61.3534 126.488 61.5935 126.488C63.0343 133.872 64.475 141.316 65.9758 149C69.2176 147.919 72.1591 146.959 75.2808 145.878C75.0407 144.858 74.8606 144.258 74.6805 143.597ZM60.2127 119.044C60.2127 114.722 60.1527 110.94 60.2728 107.098C60.2728 106.557 60.753 105.537 61.0532 105.537C61.6535 105.537 62.494 105.837 62.9142 106.317C65.3155 109.139 63.9948 116.403 60.2127 119.044Z" fill="white"/>
<path d="M167.73 146.179C164.908 146.659 162.387 147.139 159.685 147.619C159.685 142.637 159.806 137.774 159.625 132.911C159.565 131.05 159.205 129.189 158.545 127.449C158.185 126.428 157.044 125.708 156.264 124.867C156.023 124.987 155.783 125.167 155.603 125.287C155.603 131.891 155.603 138.494 155.603 145.158C152.782 145.818 150.08 146.479 147.259 147.139C147.259 129.97 147.259 112.801 147.259 95.4513C150.02 95.2112 152.782 94.9711 155.723 94.731C155.723 101.274 155.723 107.818 155.723 114.361C160.226 112.561 162.567 113.281 164.668 118.023C165.989 121.025 166.889 124.267 167.43 127.449C168.51 133.572 168.39 139.755 167.73 146.179Z" fill="white"/>
<path d="M1.62087 146.779C2.04109 139.455 2.46132 132.431 2.94158 125.407C3.06164 123.486 3.00161 121.926 0 122.286C5.16277 113.881 1.98106 105.177 2.04109 96.4719C7.14383 95.3913 12.2466 95.3913 17.4093 95.8716C17.8296 95.9316 18.2498 96.5319 18.4899 96.9522C18.67 97.2523 18.61 97.6725 18.67 98.0327C19.3304 104.096 18.7901 104.636 12.9069 104.576C12.5467 104.576 12.1865 104.576 11.6462 104.576C11.6462 107.398 11.6462 110.099 11.6462 112.981C13.8674 112.981 15.9686 113.041 18.0097 112.981C19.3904 112.921 20.1708 113.281 20.1708 114.782C20.1708 114.902 20.2308 115.082 20.2308 115.202C21.3114 121.565 20.9512 121.986 14.7079 122.346C13.8074 122.406 12.967 122.466 11.9464 122.586C11.7063 127.328 11.5262 131.891 11.3461 136.693C14.5878 136.693 17.7095 136.693 21.4315 136.693C20.7711 139.875 20.2308 142.697 19.5105 145.458C19.4504 145.818 18.7901 146.239 18.3699 146.359C12.7268 147.259 7.20386 148.1 1.62087 146.779Z" fill="white"/>
<path d="M103.255 147.139C103.255 135.793 103.255 124.867 103.255 113.881C105.897 113.041 108.358 112.32 111.06 111.48C111.06 113.101 111.06 114.602 111.06 116.643C111.84 115.562 112.32 114.962 112.74 114.361C114.722 111.78 116.943 111.66 118.684 114.421C120.124 116.703 121.325 119.344 122.045 121.925C124.207 129.429 124.387 137.174 123.786 144.918C123.726 145.638 122.886 146.659 122.226 146.839C120.244 147.439 118.143 147.679 115.742 148.16C115.742 146.899 115.802 145.938 115.742 144.978C115.502 139.635 115.262 134.352 115.022 129.009C115.022 128.649 114.962 128.229 114.842 127.929C114.361 126.668 114.361 124.747 112.44 124.987C111.96 125.047 111.48 127.028 111.42 128.169C111.24 133.632 111.18 139.095 111.18 144.618C111.18 146.118 110.759 146.779 109.199 146.779C107.278 146.839 105.296 147.019 103.255 147.139Z" fill="white"/>
<path d="M99.1726 132.011C98.9324 129.55 98.6323 127.028 97.7918 124.747C96.7713 121.805 95.5106 118.864 93.7697 116.282C91.7886 113.341 88.6069 112.2 85.065 112.981C84.2846 113.161 83.204 114.001 83.0839 114.662C82.7237 117.063 82.6637 119.524 82.5437 121.925C86.4457 121.685 87.7664 122.406 88.787 125.347C88.3668 125.407 87.9466 125.527 87.5263 125.647C79.482 127.388 75.1597 135.012 77.8611 142.877C79.542 147.799 84.1045 149.18 88.2467 145.998C89.1472 145.278 90.0477 144.498 91.1283 143.537C91.2483 145.038 91.3684 146.238 91.4884 147.499C94.37 146.719 97.0114 145.998 100.013 145.158C99.7129 140.655 99.5928 136.333 99.1726 132.011ZM90.2278 138.975C89.5074 138.975 88.5469 138.854 88.0066 138.374C85.8454 136.333 87.0461 131.531 90.3478 130.15C90.588 132.791 90.8281 135.253 90.9482 137.654C91.0082 138.074 90.4679 138.975 90.2278 138.975Z" fill="white"/>
<path d="M191.083 129.85C191.083 128.649 191.203 127.448 191.083 126.248C190.662 122.166 189.822 118.203 187.061 114.962C184.539 112.02 180.937 111.48 177.816 113.821C176.495 114.842 175.174 116.162 174.394 117.603C170.252 125.587 170.312 133.752 173.853 141.916C175.234 145.038 177.636 147.139 181.357 147.199C185.079 147.199 187.241 144.858 188.801 141.856C190.723 138.074 191.323 133.992 191.083 129.85ZM183.219 133.992C182.918 134.652 181.778 135.253 181.117 135.253C180.397 135.193 179.496 134.472 179.136 133.752C178.656 132.791 178.656 131.591 178.416 130.45C178.656 129.249 178.716 128.049 179.136 126.968C179.436 126.248 180.337 125.467 180.997 125.407C181.718 125.347 182.798 126.008 183.098 126.608C184.359 129.069 184.359 131.591 183.219 133.992Z" fill="white"/>
<path d="M33.1973 147.739C30.4958 147.619 27.8544 147.499 24.7327 147.379C24.7327 144.077 24.6727 140.956 24.7327 137.834C24.9128 124.447 25.153 111.12 25.3331 97.7323C25.3331 95.9914 25.9934 95.3911 27.6143 95.211C29.5353 95.0309 31.4563 94.5506 33.1973 94.1904C33.1973 111.96 33.1973 129.669 33.1973 147.739Z" fill="white"/>
<path d="M141.916 122.826C139.094 121.865 137.293 122.646 136.333 125.467C135.072 129.069 134.952 132.671 136.633 136.213C137.954 139.035 139.695 139.935 142.816 139.695C142.816 141.376 142.997 143.117 142.756 144.798C142.636 145.638 141.736 146.599 140.955 147.139C137.894 149.12 133.992 148.22 131.29 145.098C128.649 141.976 127.688 138.254 127.448 134.292C127.028 128.409 127.748 122.766 131.17 117.723C133.211 114.722 136.033 112.801 139.875 113.161C142.816 113.401 143.537 114.542 142.936 117.423C142.516 119.164 142.276 121.025 141.916 122.826Z" fill="white"/>
<path d="M190.182 103.796C189.342 102.235 188.621 101.034 188.081 99.7134C186.28 95.2711 184.779 90.7086 182.798 86.3263C177.996 75.5205 170.912 66.2155 162.447 58.0511C159.806 55.5298 157.285 52.8283 154.703 50.1869C154.103 49.5866 153.563 48.8662 152.842 47.9657C165.749 50.6671 195.105 94.1905 190.182 103.796Z" fill="white"/>
<path d="M24.9731 57.5108C25.1532 57.2107 25.2133 56.8505 25.4534 56.6103C38.6005 44.1236 53.9087 35.8392 71.6782 32.1172C72.3385 31.9971 73.0589 32.1172 73.7793 32.1172C73.8393 32.2973 73.8994 32.5374 74.0194 32.7175C73.4191 33.0777 72.8188 33.618 72.1584 33.7381C54.509 37.28 39.3208 45.6244 25.6935 57.1506C25.5134 57.3307 25.2133 57.3908 24.9731 57.5108Z" fill="white"/>
<path d="M24.9736 57.511C21.3717 61.8933 17.7097 66.2157 14.2879 70.658C11.5865 74.1999 9.12515 77.982 6.12354 81.5239C6.36366 80.9836 6.48373 80.4433 6.78389 79.903C11.1062 71.2584 17.4696 64.2346 24.4334 57.6911C24.4934 57.571 24.7935 57.571 24.9736 57.511Z" fill="white"/>
</svg>
